<?xml version="1.0" standalone="no"?>
<!DOCTYPE svg PUBLIC "-//W3C//DTD SVG 20010904//EN"
 "http://www.w3.org/TR/2001/REC-SVG-20010904/DTD/svg10.dtd">
<svg version="1.0" xmlns="http://www.w3.org/2000/svg"
 width="400.000000pt" height="300.000000pt" viewBox="0 0 400.000000 300.000000"
 preserveAspectRatio="xMidYMid meet">

<g transform="translate(0.000000,300.000000) scale(0.100000,-0.100000)"
fill="white" stroke="none">
<path d="M1933 2276 c-137 -101 -181 -222 -112 -310 15 -19 16 -24 5 -20 -10
4 -17 -2 -22 -20 -8 -33 8 -53 49 -61 48 -10 77 -32 77 -58 0 -20 -4 -23 -30
-19 -17 2 -35 13 -41 24 -8 15 -13 17 -25 7 -8 -6 -14 -22 -14 -35 0 -18 7
-25 28 -30 47 -10 49 -14 4 -11 -31 2 -41 -1 -38 -10 14 -36 -139 16 -197 68
-95 83 -76 199 33 199 60 0 86 -42 54 -88 -8 -12 -11 -22 -5 -22 17 0 41 43
41 72 0 44 -32 68 -90 68 -64 0 -103 -20 -124 -64 -31 -65 -14 -151 42 -209
35 -37 118 -79 210 -107 41 -12 72 -23 70 -26 -3 -2 -70 5 -149 17 -120 18
-151 20 -187 10 -131 -36 -198 -210 -113 -294 26 -27 39 -32 95 -35 65 -4 65
-4 86 29 24 40 20 83 -11 114 l-20 20 17 -38 c17 -35 17 -41 3 -65 -11 -21
-24 -28 -52 -30 -32 -3 -43 2 -72 31 -40 40 -45 74 -16 127 40 76 114 97 231
65 32 -9 72 -13 95 -9 l40 6 -45 -24 c-63 -32 -87 -84 -100 -217 -15 -147 -41
-200 -98 -201 -13 0 -34 11 -47 25 -20 19 -25 35 -26 77 -1 65 -17 38 -18 -30
-1 -35 5 -49 28 -73 42 -41 97 -41 146 2 47 42 62 72 75 155 6 38 16 86 22
107 14 48 62 90 92 81 30 -9 28 -6 32 -86 2 -44 15 -113 33 -173 46 -152 38
-245 -23 -245 -34 0 -88 40 -108 80 l-18 35 0 -39 c0 -86 118 -141 196 -90 51
34 59 114 25 254 -31 127 -37 209 -17 247 28 55 84 55 112 0 20 -38 14 -120
-17 -247 -49 -202 -15 -277 124 -271 45 2 97 59 97 107 l0 39 -18 -35 c-20
-40 -74 -80 -108 -80 -61 0 -69 93 -23 245 18 60 31 129 33 173 4 80 2 77 33
86 50 16 112 -93 113 -199 1 -45 32 -106 74 -143 50 -44 105 -45 147 -3 23 24
29 38 28 73 -1 68 -17 95 -18 30 -1 -42 -6 -58 -26 -77 -13 -14 -34 -25 -47
-25 -57 1 -83 54 -98 201 -13 133 -37 185 -100 217 l-45 24 40 -6 c23 -4 63 0
95 9 117 32 191 11 231 -65 29 -53 24 -87 -16 -127 -29 -29 -40 -34 -72 -31
-28 2 -41 9 -52 30 -14 24 -14 30 3 65 l17 38 -20 -20 c-31 -31 -35 -74 -11
-114 21 -33 21 -33 86 -29 56 3 69 8 95 35 56 55 50 157 -14 229 -62 72 -112
81 -293 54 -75 -11 -139 -18 -142 -16 -2 3 29 14 70 26 143 43 221 96 252 172
32 75 10 165 -45 193 -42 22 -125 19 -149 -5 -26 -26 -26 -81 -2 -103 26 -24
36 -21 18 5 -33 46 -6 88 56 88 107 0 125 -117 31 -199 -58 -52 -211 -104
-197 -68 3 9 -7 12 -38 10 -45 -3 -43 1 5 11 20 5 27 12 27 30 0 13 -6 29 -14
35 -12 10 -17 8 -25 -7 -6 -11 -24 -22 -41 -24 -26 -4 -30 -1 -30 19 0 26 29
48 77 58 41 8 57 28 49 61 -5 18 -12 24 -22 20 -11 -4 -10 1 5 20 50 63 45
134 -16 216 -31 43 -144 138 -163 138 -4 0 -34 -20 -67 -44z"/>
<path d="M1193 775 c0 -67 2 -84 6 -52 l6 48 45 -45 c24 -26 49 -46 54 -46 6
0 -12 23 -39 51 l-50 51 43 38 c23 21 42 41 42 46 0 5 -22 -14 -49 -40 l-50
-49 -4 49 c-2 27 -3 4 -4 -51z"/>
<path d="M1472 773 c1 -54 3 -81 5 -60 4 33 7 37 31 37 19 0 35 -11 55 -35 15
-19 33 -35 39 -35 7 0 -3 15 -21 34 -32 33 -32 34 -12 41 31 10 46 42 32 71
-12 28 -48 44 -97 44 l-34 0 2 -97z m112 61 c19 -48 -5 -74 -68 -74 -36 0 -36
0 -36 45 l0 45 49 0 c35 0 51 -4 55 -16z"/>
<path d="M1834 859 c-17 -23 -84 -179 -76 -179 4 0 23 14 42 31 27 23 29 26 8
14 -16 -10 -28 -15 -28 -12 0 3 14 36 31 73 l30 69 35 -80 c20 -44 40 -84 45
-90 13 -13 2 16 -43 114 -26 57 -36 71 -44 60z"/>
<path d="M2093 775 c0 -67 2 -84 6 -52 l6 48 45 -45 c24 -26 49 -46 54 -46 6
0 -12 23 -39 51 l-50 51 43 38 c23 21 42 41 42 46 0 5 -22 -14 -49 -40 l-50
-49 -4 49 c-2 27 -3 4 -4 -51z"/>
<path d="M2370 860 c0 -6 27 -10 60 -10 33 0 60 4 60 10 0 6 -27 10 -60 10
-33 0 -60 -4 -60 -10z"/>
<path d="M2801 795 l-2 -80 -37 45 c-20 24 -49 58 -64 75 l-27 30 1 -95 2 -95
5 79 6 80 60 -74 60 -74 3 47 c2 26 1 68 -1 95 -2 33 -4 23 -6 -33z"/>
<path d="M2370 730 l0 -50 68 2 67 2 -62 3 -63 4 0 39 0 39 58 4 57 3 -62 2
-63 2 0 -50z"/>
</g>
</svg>
