<?xml version="1.0" standalone="no"?>
<!DOCTYPE svg PUBLIC "-//W3C//DTD SVG 20010904//EN"
 "http://www.w3.org/TR/2001/REC-SVG-20010904/DTD/svg10.dtd">
<svg version="1.0" xmlns="http://www.w3.org/2000/svg"
 width="500.000000pt" height="500.000000pt" viewBox="0 0 500.000000 500.000000"
 preserveAspectRatio="xMidYMid meet">

<g transform="translate(0.000000,500.000000) scale(0.100000,-0.100000)"
fill="white" stroke="none">
<path d="M2107 3655 c-125 -83 -230 -155 -233 -158 -4 -4 37 -64 90 -135 53
-71 96 -132 96 -136 0 -4 -114 -156 -252 -337 -139 -182 -259 -339 -267 -350
-13 -19 -6 -19 397 -19 382 0 411 1 416 18 3 9 23 96 45 192 21 96 58 258 81
360 l42 184 -148 142 -149 142 60 121 c32 66 57 122 55 124 -3 3 -107 -64
-233 -148z"/>
<path d="M2582 3585 c-24 -48 -42 -88 -40 -89 2 -1 50 -44 108 -96 58 -52 106
-95 107 -95 1 -1 -20 -71 -47 -156 -27 -85 -50 -160 -50 -166 0 -10 31 -13
120 -13 l120 0 -1 153 c0 83 -4 173 -7 199 -7 46 -8 47 -132 135 l-125 89 -5
63 -5 63 -43 -87z"/>
<path d="M3016 3227 c10 -64 16 -75 50 -104 22 -18 42 -33 47 -33 4 0 7 -35 7
-78 l0 -78 -75 -127 c-41 -71 -75 -130 -75 -133 0 -2 88 -4 195 -4 149 0 195
3 195 13 0 6 -21 97 -47 201 l-48 188 -131 113 -131 113 13 -71z"/>
<path d="M1110 2085 l0 -255 65 0 65 0 0 105 c0 98 1 105 20 105 22 0 47 -35
100 -142 l33 -68 79 0 c43 0 78 3 78 6 0 4 -32 64 -70 134 l-70 128 45 76 c25
42 45 80 45 84 0 4 9 18 20 32 34 43 27 50 -52 50 l-73 0 -54 -100 c-45 -83
-58 -100 -75 -98 -19 3 -21 11 -24 101 l-3 97 -64 0 -65 0 0 -255z"/>
<path d="M1610 2086 l0 -256 65 0 65 0 0 90 0 90 29 0 c27 0 32 -6 67 -90 l38
-90 78 0 c86 0 84 -4 41 75 -12 22 -33 60 -46 84 l-24 45 28 23 c53 45 64 154
22 212 -41 54 -74 64 -225 69 l-138 5 0 -257z m244 112 c6 -18 6 -38 0 -55 -8
-25 -15 -28 -62 -31 l-52 -3 0 61 0 61 52 -3 c47 -3 54 -6 62 -30z"/>
<path d="M2200 2316 c-11 -29 -160 -479 -160 -483 0 -2 32 -3 70 -3 l70 0 12
45 12 45 82 0 81 0 13 -45 13 -45 73 0 c41 0 74 1 74 3 0 4 -157 470 -165 490
-6 14 -20 17 -86 17 -75 0 -80 -1 -89 -24z m115 -181 c10 -44 20 -86 22 -92 4
-10 -10 -13 -50 -13 l-55 0 26 101 c13 55 28 97 32 92 3 -4 15 -44 25 -88z"/>
<path d="M2590 2085 l0 -255 65 0 64 0 3 103 c3 93 5 102 23 105 16 2 30 -18
74 -103 l55 -105 78 0 c43 0 78 3 78 6 0 3 -30 61 -66 127 -37 67 -67 127 -67
132 0 6 27 61 61 122 34 61 62 114 62 117 0 3 -33 6 -73 6 l-73 0 -54 -100
c-44 -83 -57 -100 -74 -98 -19 3 -21 11 -24 101 l-3 97 -64 0 -65 0 0 -255z"/>
<path d="M3080 2085 l0 -255 180 0 180 0 0 60 0 60 -110 0 -110 0 0 45 0 45
85 0 85 0 0 50 0 50 -85 0 -85 0 0 40 0 40 105 0 105 0 0 60 0 60 -175 0 -175
0 0 -255z"/>
<path d="M3500 2085 l0 -255 60 0 60 0 0 140 c0 77 3 140 8 140 4 0 52 -63
106 -140 l99 -140 49 0 48 0 0 255 0 255 -60 0 -60 0 0 -130 c0 -71 -3 -130
-7 -130 -5 1 -48 59 -97 130 l-89 130 -59 0 -58 0 0 -255z"/>
</g>
</svg>
