<?xml version="1.0" standalone="no"?>
<!DOCTYPE svg PUBLIC "-//W3C//DTD SVG 20010904//EN"
 "http://www.w3.org/TR/2001/REC-SVG-20010904/DTD/svg10.dtd">
<svg version="1.0" xmlns="http://www.w3.org/2000/svg"
 width="300.000000pt" height="300.000000pt" viewBox="0 0 300.000000 300.000000"
 preserveAspectRatio="xMidYMid meet">
<metadata>
Created by potrace 1.10, written by Peter Selinger 2001-2011
</metadata>
<g transform="translate(0.000000,300.000000) scale(0.100000,-0.100000)"
fill="#820014" stroke="none">
<path d="M1466 2683 c4 -10 9 -196 11 -413 l3 -395 32 -22 c22 -16 36 -19 48
-13 43 23 42 21 38 447 l-4 408 -68 3 c-63 3 -68 1 -60 -15z m94 -171 c0 -70
3 -235 6 -367 6 -214 5 -242 -10 -254 -13 -11 -19 -11 -31 -1 -12 10 -14 67
-16 353 -1 188 -2 356 -4 372 -2 35 11 48 37 34 16 -9 18 -25 18 -137z"/>
<path d="M1306 2661 c-7 -11 -56 -147 -56 -155 0 -3 7 -6 15 -6 8 0 15 -6 15
-13 0 -8 -34 -111 -75 -231 -41 -120 -75 -221 -75 -225 0 -8 71 -23 78 -17 2
3 80 279 122 435 l11 43 61 -6 61 -7 -6 38 c-4 21 -7 64 -7 96 l0 57 -69 0
c-39 0 -72 -4 -75 -9z m110 -55 c3 -13 4 -37 2 -52 -3 -25 -8 -30 -43 -35 -22
-3 -47 -8 -55 -10 -24 -6 -24 51 0 89 16 26 26 32 55 32 28 0 36 -4 41 -24z"/>
<path d="M1620 2279 l0 -391 33 22 c92 61 202 87 295 70 79 -14 190 -71 252
-129 l52 -49 -4 61 c-4 54 -8 64 -39 90 -86 74 -227 112 -386 104 l-103 -5 0
309 0 309 -50 0 -50 0 0 -391z m55 329 c2 -7 6 -134 9 -282 6 -297 8 -305 70
-307 28 0 26 -3 -29 -28 -41 -19 -62 -25 -67 -17 -12 18 -10 646 2 646 6 0 12
-6 15 -12z"/>
<path d="M1740 2374 l0 -294 90 0 c79 0 90 2 90 18 0 9 -7 118 -15 242 -8 124
-15 239 -15 257 0 34 -12 41 -107 62 l-43 9 0 -294z m97 228 c21 -13 20 -62
-1 -62 -8 0 -23 -11 -34 -25 l-20 -25 -6 23 c-8 30 -8 82 1 90 9 9 45 9 60 -1z
m3 -157 c0 -41 0 -78 1 -82 0 -4 -4 -9 -10 -11 -7 -2 -11 25 -11 82 0 51 4 86
10 86 6 0 10 -32 10 -75z m5 -111 c22 6 23 3 30 -77 11 -126 9 -132 -45 -132
l-45 0 -3 125 -3 124 22 -23 c15 -16 28 -21 44 -17z"/>
<path d="M1210 2640 c-38 -15 -48 -25 -67 -66 -12 -27 -22 -52 -22 -56 -1 -3
21 -8 49 -10 l49 -3 26 70 c35 97 37 94 -35 65z"/>
<path d="M1921 2567 c0 -29 6 -148 13 -265 13 -221 16 -231 59 -232 20 0 20
-6 6 100 -5 46 -15 90 -20 97 -6 6 -13 73 -16 148 l-6 137 42 -21 c45 -24 60
-46 42 -64 -17 -17 -13 -38 10 -63 l21 -22 -30 -27 c-39 -35 -44 -75 -21 -194
20 -101 22 -105 57 -116 20 -6 23 -4 18 12 -17 54 -56 256 -51 264 4 5 12 9
20 9 19 0 75 67 75 91 0 53 -44 98 -157 163 l-63 35 1 -52z m150 -144 c-9 -17
-10 -17 -16 0 -4 9 -4 25 0 35 6 16 7 16 16 0 7 -12 7 -24 0 -35z"/>
<path d="M1051 2575 c-81 -43 -101 -63 -161 -152 -49 -74 -83 -150 -96 -218
l-7 -38 42 7 c22 3 41 3 41 0 0 -10 -110 -327 -115 -332 -13 -13 -2 34 39 166
l43 142 -28 0 c-34 0 -34 -1 -53 -155 -29 -237 -28 -237 115 53 69 141 125
259 123 261 -2 2 -23 -3 -46 -12 -23 -9 -43 -15 -45 -14 -3 4 189 281 214 310
24 25 6 21 -66 -18z m-81 -124 c0 -6 -11 -22 -25 -37 -31 -33 -33 -19 -3 19
24 29 28 32 28 18z m-51 -235 c-14 -30 -18 -31 -54 -14 -23 10 -26 17 -21 42
11 51 23 57 56 26 27 -25 29 -31 19 -54z"/>
<path d="M1027 2430 c-37 -55 -67 -102 -67 -105 0 -2 10 0 23 6 15 7 40 44 70
105 26 52 45 94 43 94 -1 0 -33 -45 -69 -100z"/>
<path d="M1101 2468 c-5 -14 -82 -170 -170 -347 l-162 -323 83 85 c82 83 148
127 215 142 32 6 33 8 83 168 28 89 60 189 71 221 10 33 18 60 16 62 -1 1 -30
5 -64 9 -60 7 -63 6 -72 -17z m83 -27 c5 -8 -94 -336 -108 -360 -8 -12 -157
-83 -162 -78 -6 5 196 410 214 430 16 18 47 23 56 8z"/>
<path d="M1312 2263 c-29 -109 -56 -213 -61 -231 -9 -30 -7 -33 19 -47 16 -8
33 -15 38 -15 5 0 15 27 21 60 12 61 16 66 40 51 13 -9 13 -24 -5 -113 -5 -24
0 -30 36 -48 23 -12 43 -20 45 -18 1 2 6 126 10 276 7 278 0 341 -24 200 -20
-121 -22 -128 -36 -128 -24 0 -26 18 -10 101 19 103 19 109 -4 109 -15 0 -26
-30 -69 -197z m63 -33 c3 -5 15 -10 26 -10 17 0 19 -7 19 -58 0 -32 -3 -61 -6
-65 -4 -3 -17 1 -29 9 -19 12 -28 13 -45 4 -31 -16 -35 -7 -20 47 21 77 38
100 55 73z"/>
<path d="M2160 2376 c0 -17 -56 -66 -76 -66 -19 0 -18 -11 11 -148 20 -91 30
-121 48 -135 12 -9 39 -31 60 -48 l37 -30 0 105 c0 112 -20 238 -46 299 -17
37 -34 49 -34 23z m16 -91 c5 -19 0 -30 -23 -49 l-28 -25 -9 31 c-8 26 -6 33
13 49 31 25 39 24 47 -6z m7 -95 c4 -16 3 -45 0 -62 l-7 -33 -7 30 c-10 45
-10 107 0 101 4 -3 11 -19 14 -36z m25 -123 c5 -25 -28 -34 -44 -12 -20 27
-17 34 13 32 17 -2 29 -9 31 -20z"/>
<path d="M1077 1979 c-159 -37 -321 -200 -435 -439 -128 -268 -294 -681 -280
-696 2 -2 22 18 44 44 31 37 60 98 134 282 51 129 111 271 133 315 81 164 184
277 303 336 120 59 277 51 411 -20 l51 -28 4 50 3 49 -55 28 c-73 36 -185 76
-235 82 -22 3 -57 2 -78 -3z m215 -76 c48 -20 86 -39 83 -41 -2 -3 -33 3 -67
14 -121 35 -294 20 -376 -34 -38 -25 -34 -7 6 25 114 92 196 100 354 36z"/>
<path d="M1830 1950 c-25 -4 -79 -23 -120 -42 l-75 -35 3 -45 4 -46 46 29 c64
39 160 62 225 54 122 -15 255 -113 351 -259 89 -134 124 -216 243 -560 24 -71
55 -143 69 -159 14 -16 32 -43 40 -59 31 -60 25 -16 -14 106 -83 256 -274 710
-339 804 -105 153 -280 239 -433 212z m208 -65 c59 -27 122 -72 122 -87 0 -5
-21 6 -47 24 -45 33 -123 70 -168 81 -14 3 -11 5 10 6 17 0 54 -10 83 -24z"/>
<path d="M1466 1807 c1 -51 2 -52 41 -66 38 -14 42 -13 72 8 26 19 31 29 31
62 l0 40 -33 -25 -33 -26 -40 29 -39 29 1 -51z"/>
<path d="M1095 1808 c-90 -23 -141 -93 -132 -182 8 -78 24 -103 83 -131 124
-59 259 -68 350 -24 35 17 36 19 9 14 -98 -18 -184 -17 -252 4 -96 29 -133 54
-133 88 1 78 76 164 157 181 46 10 151 3 213 -14 21 -5 19 -2 -10 19 -75 52
-186 70 -285 45z m-25 -56 c0 -5 -11 -22 -25 -38 -14 -16 -25 -32 -25 -36 0
-5 -4 -8 -10 -8 -21 0 -9 32 22 61 35 32 38 33 38 21z"/>
<path d="M1759 1796 c-53 -21 -142 -80 -94 -61 98 38 201 48 267 26 64 -21
142 -118 162 -203 6 -26 3 -28 -51 -45 -68 -21 -283 -24 -345 -6 -21 6 -38 7
-38 3 0 -16 130 -50 186 -50 62 0 192 25 243 46 l33 14 -7 57 c-12 102 -78
209 -143 234 -45 17 -154 10 -213 -15z"/>
<path d="M2069 1743 c35 -44 58 -103 61 -159 5 -80 5 -81 -62 -103 -138 -45
-271 -51 -371 -16 -23 8 -42 13 -42 12 -1 -1 1 -28 3 -60 3 -51 6 -57 22 -52
58 18 126 22 163 9 23 -8 79 -14 133 -14 105 0 106 -1 79 -67 -21 -50 -19 -51
13 -7 16 21 45 53 64 70 30 26 40 47 62 122 14 50 26 98 26 107 0 44 -61 122
-137 173 -45 31 -48 27 -14 -15z m77 -305 c-20 -48 -41 -63 -69 -51 -12 5 -50
9 -84 7 -109 -4 -113 7 -13 32 51 13 108 32 128 42 46 23 56 15 38 -30z"/>
<path d="M929 1720 c-25 -21 -58 -56 -73 -79 l-28 -40 12 -86 c11 -76 15 -87
36 -95 35 -14 99 -75 134 -131 18 -27 34 -49 36 -49 2 0 -4 19 -12 42 -13 39
-13 44 2 55 29 21 116 35 254 42 l135 6 9 37 c5 21 7 40 5 43 -3 2 -29 -4 -57
-15 -130 -49 -372 4 -418 91 -26 52 -29 128 -5 173 11 22 19 41 18 42 -1 2
-23 -14 -48 -36z m-13 -117 c22 -100 37 -117 145 -159 38 -15 66 -31 62 -35
-4 -4 -32 -17 -62 -28 l-54 -20 -37 32 c-20 18 -48 42 -62 54 -31 26 -48 118
-29 159 14 32 29 30 37 -3z"/>
<path d="M1788 1752 c-20 -4 -23 -52 -12 -174 6 -60 9 -67 31 -71 l25 -5 -7
117 c-4 64 -10 121 -14 126 -3 6 -14 9 -23 7z"/>
<path d="M1195 1738 c-2 -7 -5 -66 -7 -130 -3 -87 -1 -118 8 -118 12 0 23 41
25 89 0 23 1 24 9 6 5 -11 9 -37 9 -58 1 -24 6 -40 16 -44 9 -3 18 -4 20 -1 3
2 -2 58 -10 123 -8 66 -15 125 -15 132 0 17 -49 17 -55 1z"/>
<path d="M1284 1648 c8 -121 14 -158 27 -158 5 0 9 15 9 33 l1 32 15 -34 c20
-47 29 -31 14 26 -7 26 -11 80 -11 119 2 67 0 72 -21 78 -13 3 -27 6 -32 6 -5
0 -6 -45 -2 -102z"/>
<path d="M1843 1703 c4 -27 9 -81 13 -120 l7 -73 44 0 c61 0 73 26 49 113 -25
93 -48 127 -87 127 l-32 0 6 -47z m86 -101 c6 -31 5 -44 -4 -52 -9 -7 -15 -7
-22 2 -13 16 -25 122 -16 132 9 9 30 -32 42 -82z"/>
<path d="M1678 1723 c-32 -12 -38 -20 -38 -44 0 -22 5 -29 20 -29 15 0 20 -7
20 -25 0 -16 -6 -25 -16 -25 -11 0 -14 -5 -10 -16 3 -9 6 -24 6 -33 0 -13 13
-21 45 -28 44 -10 45 -10 45 16 0 14 -3 50 -6 79 -6 50 -8 52 -36 52 -37 0
-33 24 5 28 19 2 27 9 27 23 0 23 -12 23 -62 2z"/>
<path d="M1102 1702 l-33 -27 7 -71 c6 -67 8 -71 37 -82 48 -18 57 -3 57 92
-1 51 -5 87 -14 99 -17 21 -15 22 -54 -11z m38 -88 c0 -49 -2 -55 -15 -44 -9
8 -15 30 -15 56 0 32 4 44 15 44 12 0 15 -13 15 -56z"/>
<path d="M1372 1638 c3 -51 7 -103 7 -115 1 -13 6 -23 12 -23 7 0 8 12 4 33
l-7 32 26 -30 c24 -29 25 -29 26 -7 0 12 -8 34 -17 48 -16 26 -13 60 12 127
12 29 -14 19 -27 -10 l-12 -28 -4 33 c-2 17 -9 32 -15 32 -9 0 -10 -24 -5 -92z"/>
<path d="M1950 1723 c0 -3 9 -40 21 -81 16 -58 18 -80 10 -98 -10 -22 -8 -24
20 -24 17 0 39 5 50 10 26 14 25 50 -1 50 -22 0 -27 16 -8 22 19 7 0 38 -23
38 -15 0 -19 4 -15 16 3 8 1 24 -4 34 -11 20 -50 46 -50 33z"/>
<path d="M1527 1702 c-32 -2 -47 -7 -44 -15 3 -11 95 -12 106 -1 12 11 -19 19
-62 16z"/>
<path d="M1490 1635 c0 -11 12 -15 50 -15 38 0 50 4 50 15 0 11 -12 15 -50 15
-38 0 -50 -4 -50 -15z"/>
<path d="M1538 1593 c-64 -5 -62 -23 2 -23 38 0 50 4 50 15 0 8 -1 14 -2 13
-2 -1 -24 -3 -50 -5z"/>
<path d="M761 1526 c-49 -88 -114 -249 -176 -436 -49 -148 -64 -182 -98 -220
-51 -58 -71 -104 -57 -130 12 -23 35 -26 285 -40 105 -6 214 -13 244 -16 l54
-6 -6 59 c-3 32 -13 92 -23 133 -14 62 -23 81 -53 108 l-35 32 22 45 22 46
-32 76 c-17 42 -45 91 -61 107 -43 46 -47 57 -31 101 11 30 12 51 4 88 -6 26
-10 61 -10 77 0 44 -14 37 -49 -24z m29 -83 c0 -10 -5 -35 -11 -56 -12 -46 -6
-68 32 -112 29 -33 74 -124 80 -161 2 -10 -3 -40 -10 -66 -13 -47 -13 -47 21
-87 47 -55 87 -222 56 -233 -15 -6 -431 19 -465 27 -33 8 -28 26 22 89 39 47
53 79 94 205 63 192 130 365 154 399 13 17 27 15 27 -5z"/>
<path d="M2216 1469 c-24 -83 -26 -93 -12 -108 27 -30 20 -81 -16 -118 -26
-27 -33 -44 -39 -95 -7 -60 -6 -64 18 -84 25 -19 26 -24 18 -75 -19 -114 -4
-233 33 -279 l17 -21 154 17 c96 11 159 23 167 32 27 26 16 63 -30 106 -40 38
-46 51 -81 171 -67 232 -181 545 -198 545 -2 0 -16 -41 -31 -91z m121 -235
c34 -104 74 -229 88 -278 20 -67 35 -98 60 -123 62 -62 53 -75 -60 -86 -33 -3
-85 -9 -117 -13 -56 -7 -56 -7 -73 27 -23 44 -30 144 -15 208 11 48 10 54 -12
99 -31 58 -27 101 13 161 31 48 36 87 18 140 -9 25 -9 39 1 59 10 24 13 25 23
11 7 -9 40 -101 74 -205z"/>
<path d="M1483 1525 c-17 -12 -21 -25 -20 -73 0 -31 -5 -67 -12 -80 -14 -26
-9 -28 24 -6 31 20 94 20 133 0 17 -9 33 -16 35 -16 3 0 1 19 -5 43 -5 23 -7
59 -4 79 6 34 3 39 -23 53 -38 19 -100 19 -128 0z m105 -30 c2 -1 6 -19 9 -39
l6 -37 -49 3 c-43 3 -49 6 -52 26 -5 34 26 65 58 57 14 -4 26 -8 28 -10z"/>
<path d="M836 1384 c-12 -32 -5 -50 39 -99 87 -96 185 -233 185 -259 0 -4 -20
5 -43 19 -24 14 -51 25 -59 25 -13 0 -27 -26 -28 -51 0 -4 39 -30 86 -58 l87
-52 22 21 c12 11 29 20 39 20 15 0 11 12 -25 78 -101 185 -242 372 -281 372
-9 0 -19 -7 -22 -16z m274 -379 c19 -35 1 -53 -35 -37 -28 13 -31 26 -12 47
18 21 32 18 47 -10z"/>
<path d="M1300 1351 c0 -4 14 -26 31 -50 22 -29 34 -39 39 -30 5 6 15 9 24 6
18 -7 22 8 5 18 -6 5 -4 12 8 20 12 9 15 17 8 23 -12 11 -115 22 -115 13z"/>
<path d="M1711 1347 c-51 -18 -52 -37 -2 -37 35 0 41 -3 41 -20 0 -12 10 -34
22 -50 26 -35 38 -25 38 33 0 35 2 37 30 37 26 0 51 22 39 34 -12 12 -138 14
-168 3z"/>
<path d="M2115 1308 c-29 -32 -68 -95 -100 -163 -49 -102 -92 -214 -84 -218 2
-1 19 -13 37 -25 l33 -24 48 45 c26 24 64 50 84 58 27 9 37 19 37 35 0 50 -55
51 -107 2 -13 -12 -23 -19 -23 -15 0 26 99 225 126 254 25 27 32 41 28 59 -12
49 -29 47 -79 -8z m-81 -304 c18 -26 18 -26 -7 -51 -40 -40 -62 -8 -35 52 14
31 18 31 42 -1z"/>
<path d="M1180 1341 c0 -4 17 -45 38 -91 32 -68 40 -79 50 -67 9 11 10 22 2
41 -16 44 -11 53 13 23 20 -25 24 -27 41 -14 19 14 18 16 -18 66 -36 48 -40
51 -82 51 -24 0 -44 -4 -44 -9z"/>
<path d="M1499 1329 c-16 -16 -19 -30 -17 -72 l3 -52 70 0 70 0 3 43 c3 36 -1
47 -27 72 -35 35 -72 39 -102 9z m76 -39 c24 -27 13 -52 -22 -48 -21 2 -29 9
-31 27 -3 21 11 40 29 41 3 0 14 -9 24 -20z"/>
<path d="M1984 1305 c-17 -41 -48 -40 -38 2 6 22 4 24 -22 21 -24 -3 -32 -12
-58 -76 l-30 -72 21 -22 22 -21 17 41 c9 23 20 42 24 42 20 0 19 -21 -1 -63
-21 -44 -22 -45 -3 -70 10 -15 21 -27 24 -27 7 0 100 251 100 268 0 7 -9 12
-21 12 -13 0 -25 -11 -35 -35z"/>
<path d="M1068 1323 c-10 -2 -18 -9 -18 -14 0 -8 98 -249 104 -256 1 -2 17 18
34 42 39 55 40 87 6 151 -39 76 -67 93 -126 77z m87 -80 c26 -39 33 -87 15
-98 -6 -4 -23 22 -40 59 -35 76 -35 76 -15 76 8 0 26 -17 40 -37z"/>
<path d="M1670 1251 c0 -27 209 -341 224 -335 7 2 18 25 24 50 12 44 11 48
-15 83 -59 79 -120 146 -166 183 -55 43 -67 46 -67 19z m207 -236 c15 -29 15
-30 -3 -13 -11 9 -28 32 -38 50 l-19 33 22 -20 c13 -11 30 -33 38 -50z"/>
<path d="M1373 1235 c-94 -47 -201 -186 -188 -245 8 -36 44 -61 58 -39 4 8 48
79 98 158 49 79 88 146 86 147 -2 2 -26 -8 -54 -21z m-117 -187 c-14 -24 -26
-37 -26 -29 0 17 41 84 47 77 3 -2 -7 -24 -21 -48z"/>
<path d="M1540 1040 l0 -120 26 0 26 0 -4 120 c-3 117 -4 120 -25 120 -23 0
-23 -2 -23 -120z"/>
<path d="M1447 1115 c-26 -23 -28 -31 -30 -105 l-2 -80 33 0 32 0 0 105 c0 58
-1 105 -2 105 -2 0 -16 -12 -31 -25z"/>
<path d="M1640 1021 l0 -101 30 0 30 0 -1 78 c0 73 -2 78 -30 100 l-29 24 0
-101z"/>
<path d="M1338 983 c-36 -37 -35 -53 1 -53 36 0 39 5 32 48 l-6 34 -27 -29z"/>
<path d="M1740 952 c0 -38 2 -42 24 -42 39 0 41 19 7 53 l-31 32 0 -43z"/>
<path d="M2077 919 l-68 -50 5 -42 c3 -23 8 -82 11 -132 3 -49 8 -114 12 -143
l5 -53 29 27 c24 23 29 36 29 77 0 48 1 49 18 34 26 -24 35 -21 61 13 l22 30
-34 43 c-29 35 -33 46 -25 66 5 14 7 60 6 103 l-3 77 -68 -50z m30 -98 c-5
-62 -3 -72 19 -105 23 -33 24 -37 7 -42 -10 -3 -28 -10 -40 -14 -12 -5 -24 -6
-26 -2 -3 4 -8 48 -11 99 -7 84 -6 93 13 112 37 37 44 27 38 -48z"/>
<path d="M990 946 c0 -3 11 -39 25 -80 20 -59 25 -95 25 -173 0 -77 5 -108 21
-143 20 -45 68 -114 74 -108 4 3 95 384 95 394 0 3 -9 0 -19 -6 -11 -5 -29
-10 -40 -10 -14 0 -23 -9 -27 -25 -8 -33 -23 -33 -16 0 7 37 -16 82 -52 103
-18 11 -45 27 -59 37 -15 9 -27 15 -27 11z m115 -158 c6 -27 10 -29 36 -24 35
7 36 5 8 -111 -27 -115 -31 -121 -53 -88 -12 18 -19 54 -22 118 -3 51 -6 109
-8 130 -4 37 -4 38 14 22 11 -10 22 -31 25 -47z"/>
<path d="M1149 911 c-22 -18 -22 -19 -6 -45 20 -30 47 -33 70 -8 23 25 21 38
-5 56 -28 20 -31 20 -59 -3z"/>
<path d="M1260 882 c0 -17 10 -20 98 -26 53 -3 185 -9 293 -12 170 -6 197 -5
202 9 7 19 -51 24 -348 33 -115 3 -218 8 -227 10 -13 4 -18 0 -18 -14z"/>
<path d="M1902 888 c-33 -33 1 -84 44 -68 34 13 37 28 10 55 -28 28 -37 30
-54 13z"/>
<path d="M1265 827 c-10 -31 -87 -399 -84 -401 21 -19 111 -66 117 -62 5 3 14
30 21 61 7 30 17 55 22 55 5 0 9 -28 9 -63 0 -36 5 -70 13 -78 10 -13 174 -45
183 -36 1 1 -1 76 -4 167 l-7 166 -102 92 c-98 90 -159 125 -168 99z m140
-119 c49 -43 88 -85 94 -103 5 -16 10 -79 11 -138 0 -122 -2 -126 -73 -111
-40 9 -42 11 -52 56 -5 26 -18 57 -28 69 -18 20 -19 20 -39 2 -11 -10 -24 -28
-29 -40 -11 -28 -33 -29 -52 -3 -13 18 -11 37 14 158 40 189 38 182 55 182 9
0 53 -33 99 -72z"/>
<path d="M1464 749 c43 -41 85 -78 92 -82 9 -5 39 12 88 51 40 32 84 65 97 74
23 16 18 17 -96 18 -66 0 -151 3 -190 6 l-70 7 79 -74z m166 14 c5 -5 -50 -53
-62 -53 -3 0 -21 12 -38 26 -23 20 -28 29 -19 35 13 8 110 2 119 -8z"/>
<path d="M1833 793 c44 -47 59 -97 59 -203 -1 -67 -7 -114 -21 -160 -11 -35
-18 -66 -16 -68 2 -3 41 22 85 54 66 47 80 62 76 79 -3 11 -6 28 -6 39 0 14
-5 17 -25 12 -23 -6 -25 -4 -25 30 0 27 5 37 20 41 14 4 20 14 20 35 0 25 -3
28 -20 23 -17 -6 -20 -2 -20 29 0 25 4 36 15 36 11 0 15 11 15 41 l0 40 -26
-20 c-26 -20 -42 -19 -79 6 -11 7 -33 13 -49 13 l-30 0 27 -27z m131 -288 c5
-15 -18 -45 -35 -45 -10 0 -11 15 -3 47 6 23 29 22 38 -2z"/>
<path d="M1678 714 l-98 -75 6 -157 c3 -86 7 -163 10 -170 4 -14 21 -12 136
10 32 6 62 16 68 23 5 6 22 43 36 81 20 52 27 88 28 149 1 72 -2 88 -32 148
-18 37 -39 67 -45 66 -7 0 -56 -34 -109 -75z m114 9 c47 -56 50 -199 5 -296
-26 -58 -25 -58 -123 -80 -44 -9 -49 5 -52 138 -1 70 1 133 6 141 8 14 132
113 143 114 3 0 13 -8 21 -17z"/>
</g>
</svg>
